<svg xmlns="http://www.w3.org/2000/svg" xmlns:xlink="http://www.w3.org/1999/xlink" width="200" zoomAndPan="magnify" viewBox="0 0 150 37.5" height="50" preserveAspectRatio="xMidYMid meet" version="1.0"><defs><g/><clipPath id="7bf16193b9"><path d="M 0.34375 7.144531 L 15.492188 7.144531 L 15.492188 22.292969 L 0.34375 22.292969 Z M 0.34375 7.144531 " clip-rule="nonzero"/></clipPath><clipPath id="10b3ee8008"><path d="M 14.800781 7.144531 L 21.886719 7.144531 L 21.886719 22.421875 L 14.800781 22.421875 Z M 14.800781 7.144531 " clip-rule="nonzero"/></clipPath><clipPath id="ca32019d6e"><path d="M 0.800781 0.144531 L 7.886719 0.144531 L 7.886719 15.421875 L 0.800781 15.421875 Z M 0.800781 0.144531 " clip-rule="nonzero"/></clipPath><clipPath id="92be119239"><rect x="0" width="8" y="0" height="16"/></clipPath><clipPath id="14ea94fc19"><path d="M 0.339844 0.0585938 L 14.796875 0.0585938 L 14.796875 7.144531 L 0.339844 7.144531 Z M 0.339844 0.0585938 " clip-rule="nonzero"/></clipPath><clipPath id="c04dc4e53c"><path d="M 0.339844 0.0585938 L 14.796875 0.0585938 L 14.796875 7.144531 L 0.339844 7.144531 Z M 0.339844 0.0585938 " clip-rule="nonzero"/></clipPath><clipPath id="5d42ac4cc2"><rect x="0" width="15" y="0" height="8"/></clipPath><clipPath id="309ce6b048"><path d="M 17.132812 0.0585938 L 21.882812 0.0585938 L 21.882812 4.8125 L 17.132812 4.8125 Z M 17.132812 0.0585938 " clip-rule="nonzero"/></clipPath><clipPath id="aac20e8e17"><path d="M 0.132812 0.0585938 L 4.882812 0.0585938 L 4.882812 4.8125 L 0.132812 4.8125 Z M 0.132812 0.0585938 " clip-rule="nonzero"/></clipPath><clipPath id="2c754d801f"><rect x="0" width="5" y="0" height="5"/></clipPath><clipPath id="18fb5c7327"><path d="M 103 0.0273438 L 141.699219 0.0273438 L 141.699219 28.683594 L 103 28.683594 Z M 103 0.0273438 " clip-rule="nonzero"/></clipPath><clipPath id="fa990cb903"><rect x="0" width="39" y="0" height="29"/></clipPath><clipPath id="17bfc394f9"><path d="M 0.171875 4 L 17 4 L 17 16 L 0.171875 16 Z M 0.171875 4 " clip-rule="nonzero"/></clipPath><clipPath id="19e57eaf32"><path d="M 64 4 L 76 4 L 76 19.550781 L 64 19.550781 Z M 64 4 " clip-rule="nonzero"/></clipPath><clipPath id="63be815dfa"><rect x="0" width="78" y="0" height="20"/></clipPath><clipPath id="de2f375621"><rect x="0" width="142" y="0" height="29"/></clipPath></defs><g transform="matrix(1, 0, 0, 1, 4, 4)"><g clip-path="url(#de2f375621)"><g clip-path="url(#7bf16193b9)"><path fill="#ffffff" d="M 15.617188 13.945312 L 15.617188 7.144531 C 7.183594 7.144531 0.34375 13.984375 0.34375 22.417969 L 7.144531 22.417969 C 7.144531 17.738281 10.9375 13.945312 15.617188 13.945312 Z M 15.617188 13.945312 " fill-opacity="1" fill-rule="nonzero"/></g><g clip-path="url(#10b3ee8008)"><g transform="matrix(1, 0, 0, 1, 14, 7)"><g clip-path="url(#92be119239)"><g clip-path="url(#ca32019d6e)"><path fill="#ffffff" d="M 0.800781 0.144531 L 7.886719 0.144531 L 7.886719 15.417969 L 0.800781 15.417969 Z M 0.800781 0.144531 " fill-opacity="1" fill-rule="nonzero"/></g></g></g></g><g clip-path="url(#14ea94fc19)"><g transform="matrix(1, 0, 0, 1, 0.000000000000000888, -0.000000000000000888)"><g clip-path="url(#5d42ac4cc2)"><g clip-path="url(#c04dc4e53c)"><path fill="#ffffff" d="M 14.796875 0.0585938 L 14.796875 7.144531 L 0.324219 7.144531 L 0.324219 0.0585938 Z M 14.796875 0.0585938 " fill-opacity="1" fill-rule="nonzero"/></g></g></g></g><g clip-path="url(#309ce6b048)"><g transform="matrix(1, 0, 0, 1, 17, -0.000000000000000888)"><g clip-path="url(#2c754d801f)"><g clip-path="url(#aac20e8e17)"><path fill="#d6002e" d="M 4.882812 0.0585938 L 4.882812 4.8125 L 0.132812 4.8125 L 0.132812 0.0585938 Z M 4.882812 0.0585938 " fill-opacity="1" fill-rule="nonzero"/></g></g></g></g><g clip-path="url(#18fb5c7327)"><g transform="matrix(1, 0, 0, 1, 103, -0.000000000000000888)"><g clip-path="url(#fa990cb903)"><g fill="#ffffff" fill-opacity="1"><g transform="translate(1.36452, 23.134744)"><g><path d="M 11.125 -11.28125 C 11.945312 -11.28125 12.53125 -10.800781 12.875 -9.84375 C 13.21875 -8.882812 13.390625 -7.875 13.390625 -6.8125 C 13.390625 -5.613281 13.203125 -4.46875 12.828125 -3.375 C 12.453125 -2.28125 11.898438 -1.394531 11.171875 -0.71875 C 10.453125 -0.0390625 9.601562 0.296875 8.625 0.296875 C 8.101562 0.296875 7.625 0.207031 7.1875 0.03125 C 6.75 -0.132812 6.398438 -0.40625 6.140625 -0.78125 C 5.304688 -0.0625 4.21875 0.296875 2.875 0.296875 C 1.945312 0.296875 1.21875 0.046875 0.6875 -0.453125 C 0.15625 -0.953125 -0.109375 -1.601562 -0.109375 -2.40625 C -0.109375 -3.15625 0.144531 -3.890625 0.65625 -4.609375 C 1.164062 -5.328125 1.832031 -6.039062 2.65625 -6.75 C 3.476562 -7.457031 4.691406 -8.410156 6.296875 -9.609375 L 7.3125 -10.359375 C 6.8125 -10.347656 6.382812 -10.242188 6.03125 -10.046875 C 5.675781 -9.847656 5.273438 -9.566406 4.828125 -9.203125 C 4.515625 -8.929688 4.25 -8.726562 4.03125 -8.59375 C 3.8125 -8.46875 3.578125 -8.40625 3.328125 -8.40625 C 3.109375 -8.40625 2.890625 -8.457031 2.671875 -8.5625 C 2.472656 -8.664062 2.300781 -8.71875 2.15625 -8.71875 C 1.988281 -8.71875 1.851562 -8.65625 1.75 -8.53125 C 1.65625 -8.414062 1.554688 -8.207031 1.453125 -7.90625 L 1.3125 -7.46875 L 0.90625 -7.46875 L 1.375 -9.015625 C 1.613281 -9.828125 1.90625 -10.390625 2.25 -10.703125 C 2.59375 -11.015625 2.976562 -11.171875 3.40625 -11.171875 C 3.65625 -11.171875 3.988281 -11.109375 4.40625 -10.984375 C 4.96875 -10.785156 5.546875 -10.6875 6.140625 -10.6875 C 6.703125 -10.6875 7.222656 -10.789062 7.703125 -11 L 7.90625 -11.40625 L 8.359375 -11.1875 C 7.054688 -9.675781 5.988281 -8.078125 5.15625 -6.390625 C 4.320312 -4.710938 3.90625 -3.300781 3.90625 -2.15625 C 3.90625 -1.71875 3.976562 -1.382812 4.125 -1.15625 C 4.28125 -0.9375 4.539062 -0.828125 4.90625 -0.828125 C 5.257812 -0.828125 5.601562 -0.914062 5.9375 -1.09375 C 5.726562 -1.507812 5.625 -2.015625 5.625 -2.609375 C 5.625 -3.453125 5.816406 -4.253906 6.203125 -5.015625 C 6.597656 -5.785156 7.078125 -6.40625 7.640625 -6.875 C 8.210938 -7.351562 8.738281 -7.59375 9.21875 -7.59375 C 9.800781 -7.59375 10.09375 -7.148438 10.09375 -6.265625 C 10.09375 -4.785156 9.613281 -3.445312 8.65625 -2.25 C 9.019531 -1.71875 9.539062 -1.453125 10.21875 -1.453125 C 11.050781 -1.453125 11.703125 -1.9375 12.171875 -2.90625 C 12.648438 -3.875 12.910156 -5.0625 12.953125 -6.46875 C 11.953125 -6.9375 11.15625 -7.421875 10.5625 -7.921875 C 9.96875 -8.421875 9.671875 -9.082031 9.671875 -9.90625 C 9.671875 -10.257812 9.789062 -10.578125 10.03125 -10.859375 C 10.28125 -11.140625 10.644531 -11.28125 11.125 -11.28125 Z M 9.265625 -7.125 C 9.097656 -7.125 8.9375 -6.960938 8.78125 -6.640625 C 8.625 -6.316406 8.492188 -5.894531 8.390625 -5.375 C 8.296875 -4.863281 8.25 -4.328125 8.25 -3.765625 C 8.25 -3.335938 8.3125 -2.957031 8.4375 -2.625 C 8.800781 -3.144531 9.085938 -3.710938 9.296875 -4.328125 C 9.503906 -4.941406 9.609375 -5.546875 9.609375 -6.140625 C 9.609375 -6.796875 9.492188 -7.125 9.265625 -7.125 Z M 9.265625 -7.125 "/></g></g></g><g fill="#ffffff" fill-opacity="1"><g transform="translate(15.661831, 23.134744)"><g><path d="M 10.640625 -9.421875 C 10.640625 -8.234375 9.976562 -7.195312 8.65625 -6.3125 C 7.34375 -5.4375 5.773438 -4.785156 3.953125 -4.359375 C 3.910156 -3.972656 3.890625 -3.613281 3.890625 -3.28125 C 3.890625 -2.5 4.035156 -1.960938 4.328125 -1.671875 C 4.628906 -1.378906 5.070312 -1.234375 5.65625 -1.234375 C 6 -1.234375 6.445312 -1.351562 7 -1.59375 C 7.5625 -1.832031 8.097656 -2.203125 8.609375 -2.703125 L 8.953125 -2.53125 C 8.410156 -1.726562 7.679688 -1.054688 6.765625 -0.515625 C 5.847656 0.0234375 4.789062 0.296875 3.59375 0.296875 C 2.550781 0.296875 1.679688 0.0351562 0.984375 -0.484375 C 0.285156 -1.003906 -0.0625 -1.738281 -0.0625 -2.6875 C -0.0625 -4.070312 0.289062 -5.429688 1 -6.765625 C 1.71875 -8.097656 2.691406 -9.179688 3.921875 -10.015625 C 5.160156 -10.859375 6.523438 -11.28125 8.015625 -11.28125 C 8.804688 -11.28125 9.441406 -11.117188 9.921875 -10.796875 C 10.398438 -10.484375 10.640625 -10.023438 10.640625 -9.421875 Z M 7.546875 -10.875 C 7.148438 -10.875 6.707031 -10.570312 6.21875 -9.96875 C 5.738281 -9.363281 5.296875 -8.578125 4.890625 -7.609375 C 4.484375 -6.648438 4.191406 -5.691406 4.015625 -4.734375 C 4.765625 -5.171875 5.414062 -5.648438 5.96875 -6.171875 C 6.5625 -6.753906 7.03125 -7.394531 7.375 -8.09375 C 7.71875 -8.800781 7.890625 -9.550781 7.890625 -10.34375 C 7.890625 -10.695312 7.773438 -10.875 7.546875 -10.875 Z M 7.546875 -10.875 "/></g></g></g><g fill="#ffffff" fill-opacity="1"><g transform="translate(26.152163, 23.134744)"><g><path d="M 8.78125 -11.28125 C 9.75 -11.28125 10.472656 -10.984375 10.953125 -10.390625 C 11.429688 -9.796875 11.671875 -8.941406 11.671875 -7.828125 C 11.671875 -6.671875 11.390625 -5.457031 10.828125 -4.1875 C 10.273438 -2.914062 9.476562 -1.847656 8.4375 -0.984375 C 7.394531 -0.128906 6.195312 0.296875 4.84375 0.296875 C 4.507812 0.296875 4.191406 0.253906 3.890625 0.171875 C 3.597656 0.0859375 3.351562 -0.0234375 3.15625 -0.171875 C 2.875 -0.242188 2.597656 -0.28125 2.328125 -0.28125 C 1.597656 -0.28125 0.703125 -0.0703125 -0.359375 0.34375 L -0.671875 0.1875 C -0.503906 -0.144531 -0.351562 -0.5625 -0.21875 -1.0625 L 3.6875 -14.109375 C 3.75 -14.359375 3.78125 -14.554688 3.78125 -14.703125 C 3.78125 -14.984375 3.671875 -15.1875 3.453125 -15.3125 C 3.234375 -15.4375 2.863281 -15.5 2.34375 -15.5 L 2.5 -15.953125 C 3.613281 -15.960938 4.617188 -16.035156 5.515625 -16.171875 C 6.421875 -16.316406 7.304688 -16.53125 8.171875 -16.8125 L 5.90625 -9.140625 C 6.3125 -9.867188 6.742188 -10.40625 7.203125 -10.75 C 7.671875 -11.101562 8.195312 -11.28125 8.78125 -11.28125 Z M 3.890625 -0.40625 C 4.492188 -0.40625 5.09375 -0.84375 5.6875 -1.71875 C 6.289062 -2.601562 6.785156 -3.691406 7.171875 -4.984375 C 7.554688 -6.285156 7.75 -7.507812 7.75 -8.65625 C 7.75 -9.113281 7.707031 -9.425781 7.625 -9.59375 C 7.550781 -9.769531 7.421875 -9.859375 7.234375 -9.859375 C 6.960938 -9.859375 6.675781 -9.6875 6.375 -9.34375 C 6.082031 -9 5.796875 -8.515625 5.515625 -7.890625 L 3.34375 -0.484375 C 3.570312 -0.429688 3.753906 -0.40625 3.890625 -0.40625 Z M 3.890625 -0.40625 "/></g></g></g></g></g></g><g transform="matrix(1, 0, 0, 1, 25, 7)"><g clip-path="url(#63be815dfa)"><g clip-path="url(#17bfc394f9)"><g fill="#ffffff" fill-opacity="1"><g transform="translate(0.215365, 15.135761)"><g><path d="M 5.9375 0 L 3.6875 0 L 0.109375 -10.640625 L 2.796875 -10.640625 L 4.875 -3.890625 L 5.0625 -3.265625 L 5.09375 -3.265625 L 5.28125 -3.890625 L 7.296875 -10.640625 L 9.15625 -10.640625 L 11.09375 -3.96875 L 11.3125 -3.265625 L 11.34375 -3.265625 L 11.59375 -4 L 13.671875 -10.640625 L 16.3125 -10.640625 L 12.71875 0 L 10.40625 0 L 8.1875 -6.890625 Z M 5.9375 0 "/></g></g></g></g><g fill="#ffffff" fill-opacity="1"><g transform="translate(16.619858, 15.135761)"><g><path d="M 5.71875 0.328125 C 5 0.328125 4.332031 0.179688 3.71875 -0.109375 C 3.113281 -0.398438 2.582031 -0.800781 2.125 -1.3125 C 1.675781 -1.832031 1.328125 -2.4375 1.078125 -3.125 C 0.835938 -3.8125 0.71875 -4.539062 0.71875 -5.3125 C 0.71875 -6.09375 0.84375 -6.820312 1.09375 -7.5 C 1.34375 -8.1875 1.691406 -8.785156 2.140625 -9.296875 C 2.597656 -9.816406 3.128906 -10.222656 3.734375 -10.515625 C 4.335938 -10.804688 4.992188 -10.953125 5.703125 -10.953125 C 6.578125 -10.953125 7.351562 -10.765625 8.03125 -10.390625 C 8.707031 -10.015625 9.210938 -9.492188 9.546875 -8.828125 L 9.546875 -10.640625 L 11.921875 -10.640625 L 11.921875 0 L 9.546875 0 L 9.546875 -1.796875 C 9.203125 -1.128906 8.691406 -0.609375 8.015625 -0.234375 C 7.347656 0.140625 6.582031 0.328125 5.71875 0.328125 Z M 6.328125 -2 C 6.753906 -2 7.15625 -2.082031 7.53125 -2.25 C 7.914062 -2.414062 8.25 -2.648438 8.53125 -2.953125 C 8.820312 -3.253906 9.046875 -3.601562 9.203125 -4 C 9.367188 -4.40625 9.453125 -4.84375 9.453125 -5.3125 C 9.453125 -5.78125 9.367188 -6.210938 9.203125 -6.609375 C 9.035156 -7.015625 8.8125 -7.367188 8.53125 -7.671875 C 8.25 -7.972656 7.914062 -8.207031 7.53125 -8.375 C 7.15625 -8.550781 6.753906 -8.640625 6.328125 -8.640625 C 5.753906 -8.640625 5.226562 -8.5 4.75 -8.21875 C 4.28125 -7.945312 3.90625 -7.5625 3.625 -7.0625 C 3.34375 -6.570312 3.203125 -5.988281 3.203125 -5.3125 C 3.203125 -4.625 3.34375 -4.03125 3.625 -3.53125 C 3.914062 -3.039062 4.296875 -2.660156 4.765625 -2.390625 C 5.242188 -2.128906 5.765625 -2 6.328125 -2 Z M 6.328125 -2 "/></g></g></g><g fill="#ffffff" fill-opacity="1"><g transform="translate(30.014451, 15.135761)"><g><path d="M 3.96875 0 L 1.46875 0 L 1.46875 -10.640625 L 3.875 -10.640625 L 3.875 -8.703125 C 4.113281 -9.296875 4.472656 -9.765625 4.953125 -10.109375 C 5.441406 -10.460938 6.03125 -10.640625 6.71875 -10.640625 L 7.859375 -10.640625 L 7.859375 -8.484375 L 6.859375 -8.484375 C 6.285156 -8.484375 5.78125 -8.34375 5.34375 -8.0625 C 4.914062 -7.789062 4.578125 -7.390625 4.328125 -6.859375 C 4.085938 -6.335938 3.96875 -5.695312 3.96875 -4.9375 Z M 3.96875 0 "/></g></g></g><g fill="#ffffff" fill-opacity="1"><g transform="translate(38.196015, 15.135761)"><g><path d="M 6.25 0.328125 C 5.539062 0.328125 4.878906 0.226562 4.265625 0.03125 C 3.660156 -0.164062 3.128906 -0.472656 2.671875 -0.890625 C 2.222656 -1.316406 1.867188 -1.863281 1.609375 -2.53125 C 1.359375 -3.195312 1.234375 -4.003906 1.234375 -4.953125 L 1.234375 -10.640625 L 3.71875 -10.640625 L 3.71875 -5.03125 C 3.71875 -4.050781 3.925781 -3.300781 4.34375 -2.78125 C 4.769531 -2.257812 5.398438 -2 6.234375 -2 C 7.078125 -2 7.703125 -2.257812 8.109375 -2.78125 C 8.523438 -3.300781 8.734375 -4.050781 8.734375 -5.03125 L 8.734375 -10.640625 L 11.234375 -10.640625 L 11.234375 -4.953125 C 11.234375 -4.003906 11.109375 -3.195312 10.859375 -2.53125 C 10.609375 -1.863281 10.253906 -1.316406 9.796875 -0.890625 C 9.335938 -0.472656 8.804688 -0.164062 8.203125 0.03125 C 7.597656 0.226562 6.945312 0.328125 6.25 0.328125 Z M 6.25 0.328125 "/></g></g></g><g fill="#ffffff" fill-opacity="1"><g transform="translate(50.670049, 15.135761)"><g><path d="M 3.96875 0 L 1.46875 0 L 1.46875 -10.640625 L 3.84375 -10.640625 L 3.84375 -8.984375 C 4.050781 -9.367188 4.332031 -9.707031 4.6875 -10 C 5.050781 -10.300781 5.46875 -10.535156 5.9375 -10.703125 C 6.414062 -10.867188 6.929688 -10.953125 7.484375 -10.953125 C 8.910156 -10.953125 9.976562 -10.5 10.6875 -9.59375 C 11.394531 -8.6875 11.75 -7.398438 11.75 -5.734375 L 11.75 0 L 9.25 0 L 9.25 -5.671875 C 9.25 -6.734375 9.023438 -7.492188 8.578125 -7.953125 C 8.140625 -8.421875 7.539062 -8.65625 6.78125 -8.65625 C 6.289062 -8.65625 5.832031 -8.53125 5.40625 -8.28125 C 4.976562 -8.03125 4.628906 -7.664062 4.359375 -7.1875 C 4.097656 -6.707031 3.96875 -6.125 3.96875 -5.4375 Z M 3.96875 0 "/></g></g></g><g clip-path="url(#19e57eaf32)"><g fill="#ffffff" fill-opacity="1"><g transform="translate(63.806055, 15.135761)"><g><path d="M 6.34375 4.03125 C 5.425781 4.03125 4.644531 3.914062 4 3.6875 C 3.351562 3.46875 2.820312 3.160156 2.40625 2.765625 C 2 2.378906 1.691406 1.945312 1.484375 1.46875 C 1.273438 0.988281 1.160156 0.492188 1.140625 -0.015625 L 3.5 -0.015625 C 3.582031 0.359375 3.722656 0.691406 3.921875 0.984375 C 4.117188 1.273438 4.410156 1.503906 4.796875 1.671875 C 5.191406 1.835938 5.703125 1.921875 6.328125 1.921875 C 6.910156 1.921875 7.40625 1.835938 7.8125 1.671875 C 8.21875 1.503906 8.546875 1.273438 8.796875 0.984375 C 9.054688 0.703125 9.242188 0.375 9.359375 0 C 9.472656 -0.375 9.53125 -0.769531 9.53125 -1.1875 L 9.53125 -2.28125 C 9.175781 -1.582031 8.671875 -1.070312 8.015625 -0.75 C 7.367188 -0.425781 6.648438 -0.265625 5.859375 -0.265625 C 5.109375 -0.265625 4.414062 -0.398438 3.78125 -0.671875 C 3.144531 -0.953125 2.597656 -1.332031 2.140625 -1.8125 C 1.691406 -2.289062 1.34375 -2.847656 1.09375 -3.484375 C 0.84375 -4.128906 0.71875 -4.8125 0.71875 -5.53125 C 0.71875 -6.257812 0.835938 -6.945312 1.078125 -7.59375 C 1.328125 -8.238281 1.675781 -8.816406 2.125 -9.328125 C 2.582031 -9.835938 3.117188 -10.234375 3.734375 -10.515625 C 4.359375 -10.804688 5.035156 -10.953125 5.765625 -10.953125 C 6.398438 -10.953125 6.96875 -10.847656 7.46875 -10.640625 C 7.96875 -10.441406 8.390625 -10.179688 8.734375 -9.859375 C 9.085938 -9.535156 9.359375 -9.191406 9.546875 -8.828125 L 9.546875 -10.640625 L 11.921875 -10.640625 L 11.921875 -1.21875 C 11.921875 -0.476562 11.800781 0.207031 11.5625 0.84375 C 11.320312 1.488281 10.960938 2.046875 10.484375 2.515625 C 10.015625 2.992188 9.429688 3.363281 8.734375 3.625 C 8.046875 3.894531 7.25 4.03125 6.34375 4.03125 Z M 6.328125 -2.4375 C 6.753906 -2.4375 7.15625 -2.515625 7.53125 -2.671875 C 7.914062 -2.835938 8.25 -3.0625 8.53125 -3.34375 C 8.820312 -3.632812 9.046875 -3.96875 9.203125 -4.34375 C 9.367188 -4.726562 9.453125 -5.128906 9.453125 -5.546875 C 9.453125 -5.960938 9.367188 -6.351562 9.203125 -6.71875 C 9.046875 -7.09375 8.828125 -7.421875 8.546875 -7.703125 C 8.265625 -7.992188 7.929688 -8.222656 7.546875 -8.390625 C 7.171875 -8.554688 6.765625 -8.640625 6.328125 -8.640625 C 5.734375 -8.640625 5.203125 -8.507812 4.734375 -8.25 C 4.265625 -7.988281 3.890625 -7.625 3.609375 -7.15625 C 3.335938 -6.695312 3.203125 -6.160156 3.203125 -5.546875 C 3.203125 -4.941406 3.335938 -4.40625 3.609375 -3.9375 C 3.890625 -3.46875 4.265625 -3.097656 4.734375 -2.828125 C 5.203125 -2.566406 5.734375 -2.4375 6.328125 -2.4375 Z M 6.328125 -2.4375 "/></g></g></g></g></g></g></g></g></svg>